# xmcd CD database file
#
# Track frame offsets:
#	150
#	13334
#	26274
#	39581
#	53695
#	67420
#	80771
#	92839
#	108006
#	122193
#	135086
#	146473
#	158936
#	171032
#	185123
#	196468
#	209761
#	222107
#	234750
#	246986
#	258505
#	269603
#	281394
#	294234
#	306007
#
# Disc length: 4251 seconds
#
# Revision: 0
# Processed by: cddbd v1.4PL0 Copyright (c) Steve Scherf et al.
# Submitted via: CDex 1.50Beta5
#
DISCID=73109919
DTITLE=Lowell Fulson - Black Widow Spider Blues
DYEAR=2000
DGENRE=Blues
TTITLE0=9.30 Shuffle
TTITLE1=Thinking Blues
TTITLE2=Wee Hours In The Morning
TTITLE3=My Baby
TTITLE4=Demon Woman
TTITLE5=Blues And Misery
TTITLE6=Ain't Nobody's Business
TTITLE7=Black Widow Spider Blues
TTITLE8=Three O'Clock Blues
TTITLE9=Midnight Showers Of Rain
TTITLE10=So Long, So Long
TTITLE11=Just A Poor Boy
TTITLE12=(Sweet) Jenny Lee
TTITLE13=Black Cat Blues
TTITLE14=Everyday I Have The Blues
TTITLE15=Cold Hearted Mama
TTITLE16=Want To See My Baby
TTITLE17=Mean Woman Blues
TTITLE18=My Baby Left Me
TTITLE19=My Baby Can't Be Found
TTITLE20=My Gal At Eight
TTITLE21=Rocking After Midnight
TTITLE22=I Walked All Night
TTITLE23=Mama Bring Your Clothes Back Home
TTITLE24=Trying To Find My Baby
EXTD=YEAR: 2000
EXTT0=
EXTT1=
EXTT2=
EXTT3=
EXTT4=
EXTT5=
EXTT6=
EXTT7=
EXTT8=
EXTT9=
EXTT10=
EXTT11=
EXTT12=
EXTT13=
EXTT14=
EXTT15=
EXTT16=
EXTT17=
EXTT18=
EXTT19=
EXTT20=
EXTT21=
EXTT22=
EXTT23=
EXTT24=
PLAYORDER=
